<svg width="280" height="281" viewBox="0 0 280 281" fill="none" xmlns="http://www.w3.org/2000/svg">
<path d="M239.981 102.871C237.372 99.4547 237.429 94.5789 240.469 91.5392L247.603 84.4049C250.727 81.2807 250.727 76.2154 247.603 73.0912L242.419 67.9066C239.295 64.783 234.231 64.7823 231.107 67.9049L221.253 77.7523C218.658 80.3467 214.647 80.8042 211.367 79.1566C200.412 73.6523 188.081 70.4997 175 70.4997C129.978 70.4997 93.3334 107.133 93.3334 152.166C93.3334 197.2 129.978 233.833 175 233.833C220.022 233.833 256.667 197.2 256.667 152.166C256.659 134.28 250.753 116.973 239.981 102.871ZM175 210.5C142.835 210.5 116.667 184.331 116.667 152.166C116.667 120.001 142.835 93.8331 175 93.8331C207.165 93.8331 233.333 120.001 233.333 152.166C233.333 184.331 207.165 210.5 175 210.5Z" fill="#001D6D"/>
<circle cx="174.771" cy="152.853" r="68.6275" fill="white"/>
<line x1="42.2712" y1="198.425" x2="73.0229" y2="198.425" stroke="#001D6D" stroke-width="15" stroke-linecap="round" stroke-linejoin="round"/>
<line x1="31.2908" y1="151.758" x2="62.0425" y2="151.758" stroke="#001D6D" stroke-width="15" stroke-linecap="round" stroke-linejoin="round"/>
<line x1="43.1863" y1="105.091" x2="73.9379" y2="105.091" stroke="#001D6D" stroke-width="15" stroke-linecap="round" stroke-linejoin="round"/>
<line x1="159.395" y1="46.5294" x2="190.147" y2="46.5294" stroke="#001D6D" stroke-width="15" stroke-linecap="round" stroke-linejoin="round"/>
<line x1="175.866" y1="121.922" x2="175.866" y2="152.673" stroke="#EF0AA1" stroke-width="15" stroke-linecap="round" stroke-linejoin="round"/>
</svg>
