<svg width="280" height="279" viewBox="0 0 280 279" fill="none" xmlns="http://www.w3.org/2000/svg">
<path fill-rule="evenodd" clip-rule="evenodd" d="M227.188 34.875H183.012V21.5062C183.012 19.2591 181.191 17.4375 178.944 17.4375C176.697 17.4375 174.875 19.2591 174.875 21.5062V34.875H105.125V21.5062C105.125 19.2591 103.303 17.4375 101.056 17.4375C98.8091 17.4375 96.9875 19.2591 96.9875 21.5062V34.875H52.8125C48.1878 34.875 43.7525 36.7122 40.4823 39.9823C37.2122 43.2525 35.375 47.6878 35.375 52.3125V226.688C35.375 231.312 37.2122 235.748 40.4823 239.018C43.7525 242.288 48.1878 244.125 52.8125 244.125H146.394C148.641 244.125 150.463 242.303 150.463 240.056C150.463 237.809 148.641 235.988 146.394 235.988H58.5125C50.2282 235.988 43.5125 229.272 43.5125 220.988V58.0125C43.5125 49.7282 50.2282 43.0125 58.5125 43.0125H96.9875V65.6813C96.9875 67.9284 98.8091 69.75 101.056 69.75C103.303 69.75 105.125 67.9284 105.125 65.6813V43.0125H174.875V65.6813C174.875 67.9284 176.697 69.75 178.944 69.75C181.191 69.75 183.012 67.9284 183.012 65.6813V43.0125H221.487C229.772 43.0125 236.488 49.7282 236.488 58.0125V145.894C236.488 148.141 238.309 149.962 240.556 149.962C242.803 149.962 244.625 148.141 244.625 145.894V52.3125C244.625 47.6878 242.788 43.2525 239.518 39.9823C236.248 36.7122 231.812 34.875 227.188 34.875Z" fill="#001D6D"/>
<g clip-path="url(#clip0_1_423)">
<path fill-rule="evenodd" clip-rule="evenodd" d="M72.11 116.715C72.11 113.262 73.6777 109.95 76.4683 107.509C79.2588 105.067 83.0436 103.695 86.99 103.695H146.51C150.456 103.695 154.241 105.067 157.032 107.509C159.822 109.95 161.39 113.262 161.39 116.715C161.39 120.168 159.822 123.48 157.032 125.922C154.241 128.363 150.456 129.735 146.51 129.735H86.99C83.0436 129.735 79.2588 128.363 76.4683 125.922C73.6777 123.48 72.11 120.168 72.11 116.715ZM86.99 110.205C85.0168 110.205 83.1244 110.891 81.7291 112.112C80.3339 113.333 79.55 114.989 79.55 116.715C79.55 118.442 80.3339 120.097 81.7291 121.318C83.1244 122.539 85.0168 123.225 86.99 123.225H146.51C148.483 123.225 150.376 122.539 151.771 121.318C153.166 120.097 153.95 118.442 153.95 116.715C153.95 114.989 153.166 113.333 151.771 112.112C150.376 110.891 148.483 110.205 146.51 110.205H86.99Z" fill="#001D6D"/>
<path d="M212.83 117.18C212.83 120.833 211.379 124.337 208.795 126.92C206.212 129.504 202.708 130.955 199.055 130.955C195.402 130.955 191.898 129.504 189.315 126.92C186.731 124.337 185.28 120.833 185.28 117.18C185.28 113.527 186.731 110.023 189.315 107.44C191.898 104.856 195.402 103.405 199.055 103.405C202.708 103.405 206.212 104.856 208.795 107.44C211.379 110.023 212.83 113.527 212.83 117.18Z" stroke="#EF0AA1" stroke-width="5"/>
<path fill-rule="evenodd" clip-rule="evenodd" d="M72.11 153.915C72.11 150.462 73.6777 147.15 76.4683 144.709C79.2588 142.267 83.0436 140.895 86.99 140.895H146.51C150.456 140.895 154.241 142.267 157.032 144.709C159.822 147.15 161.39 150.462 161.39 153.915C161.39 157.368 159.822 160.68 157.032 163.122C154.241 165.563 150.456 166.935 146.51 166.935H86.99C83.0436 166.935 79.2588 165.563 76.4683 163.122C73.6777 160.68 72.11 157.368 72.11 153.915ZM86.99 147.405C85.0168 147.405 83.1244 148.091 81.7291 149.312C80.3339 150.533 79.55 152.189 79.55 153.915C79.55 155.642 80.3339 157.298 81.7291 158.518C83.1244 159.739 85.0168 160.425 86.99 160.425H146.51C148.483 160.425 150.376 159.739 151.771 158.518C153.166 157.298 153.95 155.642 153.95 153.915C153.95 152.189 153.166 150.533 151.771 149.312C150.376 148.091 148.483 147.405 146.51 147.405H86.99Z" fill="#001D6D"/>
<path d="M215.33 154.38C215.33 158.697 213.615 162.836 210.563 165.888C207.511 168.94 203.371 170.655 199.055 170.655C194.739 170.655 190.599 168.94 187.547 165.888C184.495 162.836 182.78 158.697 182.78 154.38C182.78 150.064 184.495 145.924 187.547 142.872C190.599 139.82 194.739 138.105 199.055 138.105C203.371 138.105 207.511 139.82 210.563 142.872C213.615 145.924 215.33 150.064 215.33 154.38Z" fill="#001D6D"/>
<path fill-rule="evenodd" clip-rule="evenodd" d="M72.11 191.115C72.11 187.662 73.6777 184.35 76.4683 181.909C79.2588 179.467 83.0436 178.095 86.99 178.095H146.51C150.456 178.095 154.241 179.467 157.032 181.909C159.822 184.35 161.39 187.662 161.39 191.115C161.39 194.568 159.822 197.88 157.032 200.322C154.241 202.763 150.456 204.135 146.51 204.135H86.99C83.0436 204.135 79.2588 202.763 76.4683 200.322C73.6777 197.88 72.11 194.568 72.11 191.115ZM86.99 184.605C85.0168 184.605 83.1244 185.291 81.7291 186.512C80.3339 187.733 79.55 189.389 79.55 191.115C79.55 192.842 80.3339 194.497 81.7291 195.718C83.1244 196.939 85.0168 197.625 86.99 197.625H146.51C148.483 197.625 150.376 196.939 151.771 195.718C153.166 194.497 153.95 192.842 153.95 191.115C153.95 189.389 153.166 187.733 151.771 186.512C150.376 185.291 148.483 184.605 146.51 184.605H86.99Z" fill="#001D6D"/>
<path d="M215.33 191.58C215.33 195.896 213.615 200.036 210.563 203.088C207.511 206.14 203.371 207.855 199.055 207.855C194.739 207.855 190.599 206.14 187.547 203.088C184.495 200.036 182.78 195.896 182.78 191.58C182.78 187.264 184.495 183.124 187.547 180.072C190.599 177.02 194.739 175.305 199.055 175.305C203.371 175.305 207.511 177.02 210.563 180.072C213.615 183.124 215.33 187.264 215.33 191.58Z" fill="#001D6D"/>
<ellipse cx="193.475" cy="193.44" rx="57.195" ry="57.195" fill="white"/>
</g>
<path d="M220.525 172.938L222.711 170.77L224.412 172.457L229.559 167.353C229.801 167.112 229.994 166.826 230.126 166.511C230.257 166.195 230.325 165.857 230.325 165.515C230.325 165.174 230.257 164.835 230.126 164.52C229.994 164.205 229.801 163.919 229.559 163.678L224.926 159.085C224.433 158.598 223.768 158.324 223.075 158.324C222.382 158.324 221.717 158.598 221.224 159.085L216.076 164.19L217.777 165.878L215.592 168.044C208.742 162.295 200.219 158.913 191.291 158.402V156.358C195.593 155.267 198.782 151.406 198.782 146.796C198.785 141.337 194.326 136.913 188.825 136.913C183.323 136.913 178.863 141.337 178.863 146.794C178.863 151.406 182.05 155.264 186.354 156.357V158.401C177.426 158.912 168.902 162.295 162.053 168.044L159.868 165.876L161.566 164.188L156.42 159.084C155.927 158.597 155.262 158.323 154.568 158.323C153.875 158.323 153.21 158.597 152.717 159.084L148.086 163.676C147.843 163.917 147.65 164.203 147.519 164.518C147.387 164.834 147.319 165.172 147.319 165.514C147.319 165.856 147.387 166.194 147.519 166.509C147.65 166.825 147.843 167.111 148.086 167.351L153.234 172.459L154.934 170.77L157.118 172.938C151.014 180.109 147.324 189.373 147.324 199.494C147.324 222.236 165.906 240.666 188.825 240.666C211.744 240.666 230.326 222.236 230.326 199.494C230.326 189.373 226.635 180.107 220.525 172.938ZM184.651 145.061V152.487C183.743 151.84 183.003 150.986 182.492 149.996C181.98 149.006 181.712 147.908 181.709 146.794C181.709 142.896 184.896 139.737 188.825 139.737C192.752 139.737 195.937 142.896 195.937 146.794C195.937 149.141 194.772 151.204 192.996 152.487L192.998 145.061C192.998 142.545 184.653 142.545 184.651 145.061ZM188.825 235.178C168.962 235.178 152.857 219.203 152.857 199.494C152.857 179.788 168.962 163.813 188.825 163.813C208.687 163.813 224.791 179.789 224.791 199.494C224.791 219.203 208.687 235.178 188.825 235.178Z" fill="#001D6D"/>
<path d="M188.825 166.558V169.304H187.654V178.593H188.825V194.848C186.238 194.848 184.141 196.926 184.141 199.494C184.141 202.062 186.238 204.142 188.825 204.142C189.371 204.142 189.892 204.032 190.381 203.859L207.885 218.223L207.883 218.22L212.412 222.673C218.355 216.722 222.024 208.533 222.024 199.494C222.024 181.306 207.16 166.558 188.825 166.558ZM212.261 217.89L193.503 199.456C193.494 198.241 193.006 197.078 192.145 196.221V170.033C195.93 170.45 199.505 171.579 202.733 173.272L200.684 176.791L202.711 177.952L204.76 174.438C208.512 176.795 211.696 179.954 214.08 183.689L210.541 185.717L211.711 187.729L215.248 185.707C217.321 189.607 218.485 193.927 218.652 198.341H209.896V200.658H218.658C218.496 205.075 217.336 209.399 215.265 213.304L211.711 211.267L210.541 213.278L214.087 215.311C213.52 216.193 212.925 217.061 212.261 217.89Z" fill="#EF0AA1"/>
<path d="M187.654 220.399H189.994V229.688H187.654V220.399Z" fill="#001D6D"/>
<path d="M158.389 198.337H167.755V200.654H158.389V198.337Z" fill="#001D6D"/>
<path d="M172.593 173.929L174.935 177.95L176.963 176.789L174.622 172.769L172.593 173.929Z" fill="#001D6D"/>
<path d="M167.108 185.715L163.053 183.393L161.883 185.406L165.938 187.73L167.108 185.715Z" fill="#001D6D"/>
<path d="M161.883 213.587L163.053 215.6L167.108 213.274L165.938 211.263L161.883 213.587Z" fill="#001D6D"/>
<path d="M172.591 225.064L174.619 226.224L176.961 222.2L174.934 221.038L172.591 225.064Z" fill="#001D6D"/>
<path d="M200.685 222.2L203.027 226.224L205.057 225.064L202.712 221.038L200.685 222.2Z" fill="#001D6D"/>
<defs>
<clipPath id="clip0_1_423">
<rect width="159.96" height="124.62" fill="white" transform="translate(59.09 90.675)"/>
</clipPath>
</defs>
</svg>
