<svg width="294" height="293" viewBox="0 0 294 293" fill="none" xmlns="http://www.w3.org/2000/svg">
<rect x="0.5" width="293" height="293" fill="white"/>
<path fill-rule="evenodd" clip-rule="evenodd" d="M208.676 78.3119C208.676 76.8893 209.829 75.7361 211.252 75.7361H232.992C233.883 75.7361 234.711 76.1963 235.181 76.953C239.272 83.5412 246.444 104.478 245.154 138.233C245.141 138.561 245.067 138.882 244.934 139.181L239.924 150.451L255.254 192.406C257.096 197.448 253.364 202.785 247.996 202.785H236.577L241.272 216.734C242.218 219.548 240.598 222.577 237.732 223.351L230.811 225.22L235.583 232.054C237.184 234.346 236.664 237.497 234.411 239.153L229.402 242.837C230.317 249.154 229.944 257.653 225.459 263.712C222.942 267.113 219.211 269.62 214.045 270.505C208.956 271.377 202.608 270.656 194.757 267.934C192.532 267.162 190.328 266.409 188.152 265.665C171.953 260.126 157.263 255.103 146.132 246.866C133.206 237.301 125.151 223.515 123.999 200.337C123.929 198.917 125.023 197.708 126.444 197.637C127.865 197.566 129.074 198.661 129.144 200.082C130.23 221.933 137.674 234.199 149.196 242.725C159.637 250.451 173.487 255.195 189.833 260.793C191.994 261.533 194.199 262.288 196.445 263.067C203.807 265.619 209.233 266.102 213.175 265.427C217.039 264.765 219.596 262.974 221.319 260.647C224.917 255.786 225.194 248.094 224.07 242.181C223.885 241.207 224.276 240.212 225.075 239.625L231.359 235.003L224.489 225.163C224.009 224.475 223.893 223.597 224.18 222.808C224.467 222.02 225.119 221.421 225.929 221.202L236.389 218.378L230.551 201.031C230.287 200.245 230.417 199.38 230.901 198.707C231.384 198.033 232.163 197.634 232.992 197.634H247.996C249.785 197.634 251.029 195.854 250.415 194.174L234.728 151.241C234.498 150.613 234.522 149.921 234.793 149.311L240.024 137.543C241.126 106.809 235.026 87.6433 231.493 80.8877H211.252C209.829 80.8877 208.676 79.7345 208.676 78.3119Z" fill="#001D6D"/>
<path fill-rule="evenodd" clip-rule="evenodd" d="M199.983 89.9031C201.405 89.9031 202.558 91.0563 202.558 92.4789V135.624C202.558 137.047 201.405 138.2 199.983 138.2H189.679V160.094C189.679 161.517 188.526 162.67 187.104 162.67C185.681 162.67 184.528 161.517 184.528 160.094V135.624C184.528 134.201 185.681 133.048 187.104 133.048H197.407V92.4789C197.407 91.0563 198.56 89.9031 199.983 89.9031Z" fill="#001D6D"/>
<path fill-rule="evenodd" clip-rule="evenodd" d="M166.189 61.6358C166.863 62.8883 166.395 64.4505 165.142 65.1249L141.383 77.9186V117.726C141.383 118.215 141.243 118.695 140.98 119.108L135.407 127.873V165.89C135.407 167.313 134.254 166.646 132.831 166.646C131.409 166.646 130.255 167.313 130.255 165.89V127.123C130.255 126.634 130.395 126.154 130.658 125.741L136.231 116.976V76.38C136.231 75.4324 136.751 74.5614 137.586 74.1121L162.7 60.589C163.952 59.9146 165.515 60.3832 166.189 61.6358Z" fill="#EF0AA1"/>
<path fill-rule="evenodd" clip-rule="evenodd" d="M127.86 28.6378C152.711 24.7259 205.743 30.9698 231.824 81.4265C232.478 82.6902 234.032 83.1852 235.295 82.5319C236.559 81.8787 237.054 80.3247 236.401 79.0609C208.115 24.3404 149.893 19.1009 124.796 23.9442C123.584 24.1781 122.708 25.239 122.708 26.4734V52.2316C122.708 53.6542 123.861 54.8074 125.284 54.8074C126.707 54.8074 127.86 53.6542 127.86 52.2316V28.6378ZM163.921 52.2316C165.344 52.2316 166.497 53.3849 166.497 54.8074V62.2129C166.497 63.6355 165.344 64.7887 163.921 64.7887C162.499 64.7887 161.345 63.6355 161.345 62.2129V54.8074C161.345 53.3849 162.499 52.2316 163.921 52.2316Z" fill="#001D6D"/>
<path fill-rule="evenodd" clip-rule="evenodd" d="M214.15 118.559C214.15 117.137 215.303 115.983 216.725 115.983H241.196C242.618 115.983 243.772 117.137 243.772 118.559C243.772 119.982 242.618 121.135 241.196 121.135H219.301V136.268C219.301 136.629 219.225 136.987 219.078 137.317L208.453 161.143C208.039 162.072 207.117 162.67 206.1 162.67H157.803C156.381 162.67 155.228 161.517 155.228 160.094C155.228 158.672 156.381 157.518 157.803 157.518H204.429L214.15 135.72V118.559ZM129.681 164.39C130.687 165.396 130.687 167.027 129.681 168.033L104.355 193.359V223.846C104.355 225.269 103.202 226.422 101.779 226.422C100.357 226.422 99.2035 225.269 99.2035 223.846V192.292C99.2035 191.609 99.4748 190.954 99.9579 190.471L126.038 164.39C127.044 163.385 128.675 163.385 129.681 164.39Z" fill="#001D6D"/>
<path fill-rule="evenodd" clip-rule="evenodd" d="M107.575 47.08C108.998 47.08 110.151 48.2332 110.151 49.6558V57.0147L126.526 74.626C126.969 75.1025 127.216 75.7292 127.216 76.38V142.063C127.216 143.486 126.063 144.639 124.64 144.639H86.1848L56.9129 165.57C56.1278 166.132 55.0948 166.207 54.2366 165.766C53.3783 165.324 52.8388 164.44 52.8388 163.475V115.661C52.8388 114.239 53.9921 113.085 55.4147 113.085C56.8372 113.085 57.9905 114.239 57.9905 115.661V158.467L83.8604 139.968C84.2975 139.656 84.8213 139.488 85.3586 139.488H122.064V77.3925L105.689 59.7812C105.246 59.3046 104.999 58.678 104.999 58.0272V49.6558C104.999 48.2332 106.153 47.08 107.575 47.08Z" fill="#EF0AA1"/>
<path fill-rule="evenodd" clip-rule="evenodd" d="M88.5555 140.433C83.6482 133.673 80.3008 125.53 79.0915 116.618C75.1508 87.5772 95.2047 61.2263 124.245 57.2856C153.286 53.3449 179.637 73.3988 183.577 102.439C187.518 131.48 167.464 157.831 138.424 161.771C129.624 162.966 120.97 161.898 113.144 159.023C109.003 157.502 104.011 158.559 101.052 162.383L72.211 199.651L60.2459 190.546L88.5538 153.098C91.5076 149.191 91.1686 144.033 88.5555 140.433ZM136.35 146.493C146.154 145.163 155.028 139.993 161.019 132.12C167.011 124.247 169.63 114.316 168.299 104.513C166.969 94.7089 161.799 85.8352 153.926 79.8437C146.053 73.8521 136.122 71.2334 126.318 72.5638C116.515 73.8941 107.641 79.0644 101.65 86.9373C95.658 94.8103 93.0394 104.741 94.3697 114.545C95.7 124.348 100.87 133.222 108.743 139.213C116.616 145.205 126.547 147.824 136.35 146.493ZM84.3865 143.46C85.8023 145.41 85.8976 148.069 84.4442 149.992L56.1363 187.439C54.4246 189.703 54.8671 192.926 57.1261 194.645L69.0911 203.751C71.3423 205.464 74.5538 205.042 76.2851 202.804L105.126 165.536C106.583 163.653 109.133 163.038 111.367 163.859C119.959 167.015 129.46 168.187 139.116 166.876C170.976 162.553 193.006 133.607 188.682 101.747C184.359 69.8867 155.412 47.8574 123.553 52.1807C91.6927 56.504 69.6634 85.4505 73.9866 117.31C75.3103 127.065 78.9787 136.01 84.3865 143.46ZM156.92 129C151.756 135.786 144.108 140.242 135.658 141.388C127.208 142.535 118.649 140.278 111.863 135.114C105.077 129.95 100.621 122.302 99.4746 113.852C98.328 105.402 100.585 96.8429 105.749 90.0572C110.913 83.2715 118.561 78.8152 127.011 77.6686C135.461 76.522 144.02 78.779 150.806 83.9432C157.591 89.1073 162.048 96.7555 163.194 105.205C164.341 113.655 162.084 122.214 156.92 129Z" fill="#001D6D"/>
<path fill-rule="evenodd" clip-rule="evenodd" d="M55.7366 111.798C60.0044 111.798 63.4641 108.338 63.4641 104.07C63.4641 99.8024 60.0044 96.3427 55.7366 96.3427C51.4689 96.3427 48.0092 99.8024 48.0092 104.07C48.0092 108.338 51.4689 111.798 55.7366 111.798ZM55.7366 116.949C62.8496 116.949 68.6158 111.183 68.6158 104.07C68.6158 96.9572 62.8496 91.191 55.7366 91.191C48.6237 91.191 42.8575 96.9572 42.8575 104.07C42.8575 111.183 48.6237 116.949 55.7366 116.949Z" fill="#EF0AA1"/>
<path fill-rule="evenodd" clip-rule="evenodd" d="M107.253 45.4701C111.521 45.4701 114.98 42.0104 114.98 37.7426C114.98 33.4749 111.521 30.0152 107.253 30.0152C102.985 30.0152 99.5255 33.4749 99.5255 37.7426C99.5255 42.0104 102.985 45.4701 107.253 45.4701ZM107.253 50.6218C114.366 50.6218 120.132 44.8556 120.132 37.7426C120.132 30.6297 114.366 24.8635 107.253 24.8635C100.14 24.8635 94.3739 30.6297 94.3739 37.7426C94.3739 44.8556 100.14 50.6218 107.253 50.6218Z" fill="#EF0AA1"/>
<path fill-rule="evenodd" clip-rule="evenodd" d="M163.277 51.2658C167.545 51.2658 171.005 47.8061 171.005 43.5383C171.005 39.2705 167.545 35.8108 163.277 35.8108C159.009 35.8108 155.55 39.2705 155.55 43.5383C155.55 47.8061 159.009 51.2658 163.277 51.2658ZM163.277 56.4174C170.39 56.4174 176.156 50.6512 176.156 43.5383C176.156 36.4254 170.39 30.6592 163.277 30.6592C156.164 30.6592 150.398 36.4254 150.398 43.5383C150.398 50.6512 156.164 56.4174 163.277 56.4174Z" fill="#001D6D"/>
<path fill-rule="evenodd" clip-rule="evenodd" d="M199.983 87.9712C204.25 87.9712 207.71 84.5115 207.71 80.2437C207.71 75.976 204.25 72.5163 199.983 72.5163C195.715 72.5163 192.255 75.976 192.255 80.2437C192.255 84.5115 195.715 87.9712 199.983 87.9712ZM199.983 93.1229C207.096 93.1229 212.862 87.3567 212.862 80.2437C212.862 73.1308 207.096 67.3646 199.983 67.3646C192.87 67.3646 187.104 73.1308 187.104 80.2437C187.104 87.3567 192.87 93.1229 199.983 93.1229Z" fill="#001D6D"/>
<path fill-rule="evenodd" clip-rule="evenodd" d="M101.457 243.165C105.725 243.165 109.185 239.705 109.185 235.437C109.185 231.169 105.725 227.71 101.457 227.71C97.1897 227.71 93.73 231.169 93.73 235.437C93.73 239.705 97.1897 243.165 101.457 243.165ZM101.457 248.316C108.57 248.316 114.337 242.55 114.337 235.437C114.337 228.324 108.57 222.558 101.457 222.558C94.3445 222.558 88.5783 228.324 88.5783 235.437C88.5783 242.55 94.3445 248.316 101.457 248.316Z" fill="#001D6D"/>
<path d="M107.253 90.547C107.253 87.7019 109.56 85.3954 112.405 85.3954H150.398C153.243 85.3954 155.55 87.7019 155.55 90.547V128.54C155.55 131.386 153.243 133.692 150.398 133.692H112.405C109.56 133.692 107.253 131.386 107.253 128.54V90.547Z" fill="white"/>
<path fill-rule="evenodd" clip-rule="evenodd" d="M150.398 90.547H112.405L112.405 128.54H150.398V90.547ZM112.405 85.3954C109.56 85.3954 107.253 87.7019 107.253 90.547V128.54C107.253 131.386 109.56 133.692 112.405 133.692H150.398C153.243 133.692 155.55 131.386 155.55 128.54V90.547C155.55 87.7019 153.243 85.3954 150.398 85.3954H112.405Z" fill="#001D6D"/>
<path d="M130.808 112.753H126.838L126.084 115.017H123.676L127.767 104.03H129.864L133.977 115.017H131.57L130.808 112.753ZM127.45 110.92H130.197L128.816 106.807L127.45 110.92Z" fill="#EF0AA1"/>
<path d="M137.411 115.017H135.147V104.03H137.411V115.017Z" fill="#EF0AA1"/>
</svg>
