<svg width="322" height="322" viewBox="0 0 322 322" fill="none" xmlns="http://www.w3.org/2000/svg">
<rect width="322" height="322" fill="white"/>
<path d="M35.6882 58.0241C35.6882 50.9151 41.4512 45.1521 48.5602 45.1521H153.145C160.254 45.1521 166.017 50.9151 166.017 58.0241V263.976C166.017 271.085 160.254 276.848 153.145 276.848H48.5602C41.4512 276.848 35.6882 271.085 35.6882 263.976V58.0241Z" fill="white"/>
<path fill-rule="evenodd" clip-rule="evenodd" d="M153.145 46.109H48.5602C42.3398 46.109 37.2972 51.1516 37.2972 57.372V263.324C37.2972 269.544 42.3398 274.587 48.5602 274.587H153.145C159.365 274.587 164.408 269.544 164.408 263.324V57.372C164.408 51.1516 159.365 46.109 153.145 46.109ZM48.5602 44.5C41.4512 44.5 35.6882 50.263 35.6882 57.372V263.324C35.6882 270.433 41.4512 276.196 48.5602 276.196H153.145C160.254 276.196 166.017 270.433 166.017 263.324V57.372C166.017 50.263 160.254 44.5 153.145 44.5H48.5602Z" fill="#001D6D" stroke="#001D6D" stroke-width="2"/>
<path d="M51.7783 164.218C51.7783 157.109 57.5413 151.346 64.6503 151.346H135.446C142.555 151.346 148.318 157.109 148.318 164.218V173.872C148.318 180.981 142.555 186.744 135.446 186.744H64.6503C57.5413 186.744 51.7783 180.981 51.7783 173.872V164.218Z" fill="white"/>
<path fill-rule="evenodd" clip-rule="evenodd" d="M135.446 152.955H64.6503C58.4299 152.955 53.3873 157.998 53.3873 164.218V173.872C53.3873 180.092 58.4299 185.135 64.6503 185.135H135.446C141.667 185.135 146.709 180.092 146.709 173.872V164.218C146.709 157.998 141.667 152.955 135.446 152.955ZM64.6503 151.346C57.5413 151.346 51.7783 157.109 51.7783 164.218V173.872C51.7783 180.981 57.5413 186.744 64.6503 186.744H135.446C142.555 186.744 148.318 180.981 148.318 173.872V164.218C148.318 157.109 142.555 151.346 135.446 151.346H64.6503Z" fill="#001D6D" stroke="#001D6D" stroke-width="2"/>
<path d="M59.8229 169.045C59.8229 165.491 62.7044 162.609 66.2589 162.609H80.7399C84.2944 162.609 87.1759 165.491 87.1759 169.045C87.1759 172.6 84.2944 175.481 80.7399 175.481H66.2589C62.7044 175.481 59.8229 172.6 59.8229 169.045Z" fill="white"/>
<path fill-rule="evenodd" clip-rule="evenodd" d="M80.7399 164.218H66.2589C63.593 164.218 61.4319 166.379 61.4319 169.045C61.4319 171.711 63.593 173.872 66.2589 173.872H80.7399C83.4058 173.872 85.5669 171.711 85.5669 169.045C85.5669 166.379 83.4058 164.218 80.7399 164.218ZM66.2589 162.609C62.7044 162.609 59.8229 165.491 59.8229 169.045C59.8229 172.6 62.7044 175.481 66.2589 175.481H80.7399C84.2944 175.481 87.1759 172.6 87.1759 169.045C87.1759 165.491 84.2944 162.609 80.7399 162.609H66.2589Z" fill="#001D6D" stroke="#001D6D"/>
<path d="M106.484 169.045C106.484 171.711 104.323 173.872 101.657 173.872C98.9911 173.872 96.83 171.711 96.83 169.045C96.83 166.379 98.9911 164.218 101.657 164.218C104.323 164.218 106.484 166.379 106.484 169.045Z" fill="white"/>
<path fill-rule="evenodd" clip-rule="evenodd" d="M101.657 172.263C103.434 172.263 104.875 170.822 104.875 169.045C104.875 167.268 103.434 165.827 101.657 165.827C99.8797 165.827 98.439 167.268 98.439 169.045C98.439 170.822 99.8797 172.263 101.657 172.263ZM101.657 173.872C104.323 173.872 106.484 171.711 106.484 169.045C106.484 166.379 104.323 164.218 101.657 164.218C98.9911 164.218 96.83 166.379 96.83 169.045C96.83 171.711 98.9911 173.872 101.657 173.872Z" fill="#EF0AA1" stroke="#EF0AA1"/>
<path d="M120.965 169.045C120.965 171.711 118.804 173.872 116.138 173.872C113.472 173.872 111.311 171.711 111.311 169.045C111.311 166.379 113.472 164.218 116.138 164.218C118.804 164.218 120.965 166.379 120.965 169.045Z" fill="white"/>
<path fill-rule="evenodd" clip-rule="evenodd" d="M116.138 172.263C117.915 172.263 119.356 170.822 119.356 169.045C119.356 167.268 117.915 165.827 116.138 165.827C114.361 165.827 112.92 167.268 112.92 169.045C112.92 170.822 114.361 172.263 116.138 172.263ZM116.138 173.872C118.804 173.872 120.965 171.711 120.965 169.045C120.965 166.379 118.804 164.218 116.138 164.218C113.472 164.218 111.311 166.379 111.311 169.045C111.311 171.711 113.472 173.872 116.138 173.872Z" fill="#EF0AA1"/>
<path d="M135.446 169.045C135.446 171.711 133.285 173.872 130.619 173.872C127.953 173.872 125.792 171.711 125.792 169.045C125.792 166.379 127.953 164.218 130.619 164.218C133.285 164.218 135.446 166.379 135.446 169.045Z" fill="white"/>
<path fill-rule="evenodd" clip-rule="evenodd" d="M130.619 172.263C132.396 172.263 133.837 170.822 133.837 169.045C133.837 167.268 132.396 165.827 130.619 165.827C128.842 165.827 127.401 167.268 127.401 169.045C127.401 170.822 128.842 172.263 130.619 172.263ZM130.619 173.872C133.285 173.872 135.446 171.711 135.446 169.045C135.446 166.379 133.285 164.218 130.619 164.218C127.953 164.218 125.792 166.379 125.792 169.045C125.792 171.711 127.953 173.872 130.619 173.872Z" fill="#EF0AA1"/>
<path d="M51.7783 207.661C51.7783 200.552 57.5413 194.789 64.6503 194.789H135.446C142.555 194.789 148.318 200.552 148.318 207.661V217.315C148.318 224.424 142.555 230.187 135.446 230.187H64.6503C57.5413 230.187 51.7783 224.424 51.7783 217.315V207.661Z" fill="white"/>
<path fill-rule="evenodd" clip-rule="evenodd" d="M135.446 196.398H64.6503C58.4299 196.398 53.3873 201.441 53.3873 207.661V217.315C53.3873 223.535 58.4299 228.578 64.6503 228.578H135.446C141.667 228.578 146.709 223.535 146.709 217.315V207.661C146.709 201.441 141.667 196.398 135.446 196.398ZM64.6503 194.789C57.5413 194.789 51.7783 200.552 51.7783 207.661V217.315C51.7783 224.424 57.5413 230.187 64.6503 230.187H135.446C142.555 230.187 148.318 224.424 148.318 217.315V207.661C148.318 200.552 142.555 194.789 135.446 194.789H64.6503Z" fill="#001D6D" stroke="#001D6D" stroke-width="2"/>
<path d="M59.8229 212.488C59.8229 208.933 62.7044 206.052 66.2589 206.052H80.7399C84.2944 206.052 87.1759 208.933 87.1759 212.488C87.1759 216.042 84.2944 218.924 80.7399 218.924H66.2589C62.7044 218.924 59.8229 216.042 59.8229 212.488Z" fill="white"/>
<path fill-rule="evenodd" clip-rule="evenodd" d="M80.7399 207.661H66.2589C63.593 207.661 61.4319 209.822 61.4319 212.488C61.4319 215.154 63.593 217.315 66.2589 217.315H80.7399C83.4058 217.315 85.5669 215.154 85.5669 212.488C85.5669 209.822 83.4058 207.661 80.7399 207.661ZM66.2589 206.052C62.7044 206.052 59.8229 208.933 59.8229 212.488C59.8229 216.042 62.7044 218.924 66.2589 218.924H80.7399C84.2944 218.924 87.1759 216.042 87.1759 212.488C87.1759 208.933 84.2944 206.052 80.7399 206.052H66.2589Z" fill="#001D6D" stroke="#001D6D"/>
<path d="M106.484 212.488C106.484 215.154 104.323 217.315 101.657 217.315C98.9911 217.315 96.83 215.154 96.83 212.488C96.83 209.822 98.9911 207.661 101.657 207.661C104.323 207.661 106.484 209.822 106.484 212.488Z" fill="white"/>
<path fill-rule="evenodd" clip-rule="evenodd" d="M101.657 215.706C103.434 215.706 104.875 214.265 104.875 212.488C104.875 210.711 103.434 209.27 101.657 209.27C99.8797 209.27 98.439 210.711 98.439 212.488C98.439 214.265 99.8797 215.706 101.657 215.706ZM101.657 217.315C104.323 217.315 106.484 215.154 106.484 212.488C106.484 209.822 104.323 207.661 101.657 207.661C98.9911 207.661 96.83 209.822 96.83 212.488C96.83 215.154 98.9911 217.315 101.657 217.315Z" fill="#EF0AA1" stroke="#EF0AA1"/>
<path d="M120.965 212.488C120.965 215.154 118.804 217.315 116.138 217.315C113.472 217.315 111.311 215.154 111.311 212.488C111.311 209.822 113.472 207.661 116.138 207.661C118.804 207.661 120.965 209.822 120.965 212.488Z" fill="white"/>
<path fill-rule="evenodd" clip-rule="evenodd" d="M116.138 215.706C117.915 215.706 119.356 214.265 119.356 212.488C119.356 210.711 117.915 209.27 116.138 209.27C114.361 209.27 112.92 210.711 112.92 212.488C112.92 214.265 114.361 215.706 116.138 215.706ZM116.138 217.315C118.804 217.315 120.965 215.154 120.965 212.488C120.965 209.822 118.804 207.661 116.138 207.661C113.472 207.661 111.311 209.822 111.311 212.488C111.311 215.154 113.472 217.315 116.138 217.315Z" fill="#EF0AA1"/>
<path d="M135.446 212.488C135.446 215.154 133.285 217.315 130.619 217.315C127.953 217.315 125.792 215.154 125.792 212.488C125.792 209.822 127.953 207.661 130.619 207.661C133.285 207.661 135.446 209.822 135.446 212.488Z" fill="white"/>
<path fill-rule="evenodd" clip-rule="evenodd" d="M130.619 215.706C132.396 215.706 133.837 214.265 133.837 212.488C133.837 210.711 132.396 209.27 130.619 209.27C128.842 209.27 127.401 210.711 127.401 212.488C127.401 214.265 128.842 215.706 130.619 215.706ZM130.619 217.315C133.285 217.315 135.446 215.154 135.446 212.488C135.446 209.822 133.285 207.661 130.619 207.661C127.953 207.661 125.792 209.822 125.792 212.488C125.792 215.154 127.953 217.315 130.619 217.315Z" fill="#EF0AA1"/>
<path fill-rule="evenodd" clip-rule="evenodd" d="M51.7783 242.254C51.7783 241.81 52.1385 241.45 52.5828 241.45L147.514 241.45C147.958 241.45 148.318 241.81 148.318 242.254C148.318 242.699 147.958 243.059 147.514 243.059L52.5828 243.059C52.1385 243.059 51.7783 242.699 51.7783 242.254Z" fill="#001D6D"/>
<path fill-rule="evenodd" clip-rule="evenodd" d="M51.7783 253.517C51.7783 253.073 52.1385 252.713 52.5828 252.713L147.514 252.713C147.958 252.713 148.318 253.073 148.318 253.517C148.318 253.962 147.958 254.322 147.514 254.322L52.5828 254.322C52.1385 254.322 51.7783 253.962 51.7783 253.517Z" fill="#001D6D"/>
<path d="M66.2589 242.254C66.2589 240.033 68.0598 238.232 70.2814 238.232H129.814C132.036 238.232 133.837 240.033 133.837 242.254C133.837 244.476 132.036 246.277 129.814 246.277H70.2814C68.0598 246.277 66.2589 244.476 66.2589 242.254Z" fill="white"/>
<path fill-rule="evenodd" clip-rule="evenodd" d="M129.814 239.841H70.2814C68.9485 239.841 67.8679 240.921 67.8679 242.254C67.8679 243.587 68.9485 244.668 70.2814 244.668H129.814C131.147 244.668 132.228 243.587 132.228 242.254C132.228 240.921 131.147 239.841 129.814 239.841ZM70.2814 238.232C68.0598 238.232 66.2589 240.033 66.2589 242.254C66.2589 244.476 68.0598 246.277 70.2814 246.277H129.814C132.036 246.277 133.837 244.476 133.837 242.254C133.837 240.033 132.036 238.232 129.814 238.232H70.2814Z" fill="#001D6D"/>
<path d="M66.2589 253.517C66.2589 251.296 68.0598 249.495 70.2814 249.495H129.814C132.036 249.495 133.837 251.296 133.837 253.517C133.837 255.739 132.036 257.54 129.814 257.54H70.2814C68.0598 257.54 66.2589 255.739 66.2589 253.517Z" fill="white"/>
<path fill-rule="evenodd" clip-rule="evenodd" d="M129.814 251.104H70.2814C68.9485 251.104 67.8679 252.184 67.8679 253.517C67.8679 254.85 68.9485 255.931 70.2814 255.931H129.814C131.147 255.931 132.228 254.85 132.228 253.517C132.228 252.184 131.147 251.104 129.814 251.104ZM70.2814 249.495C68.0598 249.495 66.2589 251.296 66.2589 253.517C66.2589 255.739 68.0598 257.54 70.2814 257.54H129.814C132.036 257.54 133.837 255.739 133.837 253.517C133.837 251.296 132.036 249.495 129.814 249.495H70.2814Z" fill="#001D6D"/>
<path fill-rule="evenodd" clip-rule="evenodd" d="M71.0861 242.254C71.0861 241.81 71.4463 241.45 71.8906 241.45H128.206C128.65 241.45 129.01 241.81 129.01 242.254C129.01 242.699 128.65 243.059 128.206 243.059H71.8906C71.4463 243.059 71.0861 242.699 71.0861 242.254Z" fill="#001D6D"/>
<path fill-rule="evenodd" clip-rule="evenodd" d="M71.0861 253.517C71.0861 253.073 71.4463 252.713 71.8906 252.713H128.206C128.65 252.713 129.01 253.073 129.01 253.517C129.01 253.962 128.65 254.322 128.206 254.322H71.8906C71.4463 254.322 71.0861 253.962 71.0861 253.517Z" fill="#001D6D"/>
<path d="M99.9999 154.232C99.9999 147.2 105.77 141.5 112.889 141.5H232.111C239.229 141.5 245 147.2 245 154.232V241.768C245 248.8 239.229 254.5 232.111 254.5H112.889C105.77 254.5 99.9999 248.8 99.9999 241.768V154.232Z" fill="white"/>
<path d="M110 155.861C110 152.348 112.87 149.5 116.41 149.5H228.59C232.13 149.5 235 152.348 235 155.861V240.139C235 243.652 232.13 246.5 228.59 246.5H116.41C112.87 246.5 110 243.652 110 240.139V155.861Z" fill="white"/>
<path fill-rule="evenodd" clip-rule="evenodd" d="M228.59 151.09H116.41C113.755 151.09 111.603 153.226 111.603 155.861V240.139C111.603 242.774 113.755 244.91 116.41 244.91H228.59C231.245 244.91 233.397 242.774 233.397 240.139V155.861C233.397 153.226 231.245 151.09 228.59 151.09ZM116.41 149.5C112.87 149.5 110 152.348 110 155.861V240.139C110 243.652 112.87 246.5 116.41 246.5H228.59C232.13 246.5 235 243.652 235 240.139V155.861C235 152.348 232.13 149.5 228.59 149.5H116.41Z" fill="#001D6D" stroke="#001D6D" stroke-width="2"/>
<path d="M161.091 181.817C161.091 180.981 161.769 180.303 162.605 180.303H173.771C174.607 180.303 175.285 180.981 175.285 181.817V192.983C175.285 193.82 174.607 194.498 173.771 194.498H162.605C161.769 194.498 161.091 193.82 161.091 192.983V181.817Z" fill="white"/>
<path d="M51.7783 120.775C51.7783 113.666 57.5413 107.903 64.6503 107.903H135.446C142.555 107.903 148.318 113.666 148.318 120.775V130.429C148.318 137.538 142.555 143.301 135.446 143.301H64.6503C57.5413 143.301 51.7783 137.538 51.7783 130.429V120.775Z" fill="white"/>
<path fill-rule="evenodd" clip-rule="evenodd" d="M232.111 143.092H112.889C106.66 143.092 101.611 148.079 101.611 154.232V241.768C101.611 247.921 106.66 252.908 112.889 252.908H232.111C238.34 252.908 243.389 247.921 243.389 241.768V154.232C243.389 148.079 238.34 143.092 232.111 143.092ZM112.889 141.5C105.77 141.5 99.9999 147.2 99.9999 154.232V241.768C99.9999 248.8 105.77 254.5 112.889 254.5H232.111C239.229 254.5 245 248.8 245 241.768V154.232C245 147.2 239.229 141.5 232.111 141.5H112.889Z" fill="#001D6D" stroke="#001D6D" stroke-width="2"/>
<path d="M188.543 173.872C188.543 166.763 194.306 161 201.415 161H272.211C279.32 161 285.083 166.763 285.083 173.872V183.526C285.083 190.635 279.32 196.398 272.211 196.398H201.415C194.306 196.398 188.543 190.635 188.543 183.526V173.872Z" fill="white"/>
<path d="M196.588 178.699C196.588 175.144 199.469 172.263 203.024 172.263H217.505C221.059 172.263 223.941 175.144 223.941 178.699C223.941 182.253 221.059 185.135 217.505 185.135H203.024C199.469 185.135 196.588 182.253 196.588 178.699Z" fill="white"/>
<path fill-rule="evenodd" clip-rule="evenodd" d="M217.505 173.872H203.024C200.358 173.872 198.197 176.033 198.197 178.699C198.197 181.365 200.358 183.526 203.024 183.526H217.505C220.171 183.526 222.332 181.365 222.332 178.699C222.332 176.033 220.171 173.872 217.505 173.872ZM203.024 172.263C199.469 172.263 196.588 175.144 196.588 178.699C196.588 182.253 199.469 185.135 203.024 185.135H217.505C221.059 185.135 223.941 182.253 223.941 178.699C223.941 175.144 221.059 172.263 217.505 172.263H203.024Z" fill="#001D6D" stroke="#001D6D"/>
<path d="M243.249 178.699C243.249 181.365 241.088 183.526 238.422 183.526C235.756 183.526 233.595 181.365 233.595 178.699C233.595 176.033 235.756 173.872 238.422 173.872C241.088 173.872 243.249 176.033 243.249 178.699Z" fill="white"/>
<path fill-rule="evenodd" clip-rule="evenodd" d="M238.422 181.917C240.199 181.917 241.64 180.476 241.64 178.699C241.64 176.922 240.199 175.481 238.422 175.481C236.645 175.481 235.204 176.922 235.204 178.699C235.204 180.476 236.645 181.917 238.422 181.917ZM238.422 183.526C241.088 183.526 243.249 181.365 243.249 178.699C243.249 176.033 241.088 173.872 238.422 173.872C235.756 173.872 233.595 176.033 233.595 178.699C233.595 181.365 235.756 183.526 238.422 183.526Z" fill="#EF0AA1" stroke="#EF0AA1"/>
<path d="M257.73 178.699C257.73 181.365 255.569 183.526 252.903 183.526C250.237 183.526 248.076 181.365 248.076 178.699C248.076 176.033 250.237 173.872 252.903 173.872C255.569 173.872 257.73 176.033 257.73 178.699Z" fill="white"/>
<path fill-rule="evenodd" clip-rule="evenodd" d="M252.903 181.917C254.68 181.917 256.121 180.476 256.121 178.699C256.121 176.922 254.68 175.481 252.903 175.481C251.126 175.481 249.685 176.922 249.685 178.699C249.685 180.476 251.126 181.917 252.903 181.917ZM252.903 183.526C255.569 183.526 257.73 181.365 257.73 178.699C257.73 176.033 255.569 173.872 252.903 173.872C250.237 173.872 248.076 176.033 248.076 178.699C248.076 181.365 250.237 183.526 252.903 183.526Z" fill="#EF0AA1" stroke="#EF0AA1"/>
<path d="M272.211 178.699C272.211 181.365 270.05 183.526 267.384 183.526C264.718 183.526 262.557 181.365 262.557 178.699C262.557 176.033 264.718 173.872 267.384 173.872C270.05 173.872 272.211 176.033 272.211 178.699Z" fill="white"/>
<path fill-rule="evenodd" clip-rule="evenodd" d="M267.384 181.917C269.161 181.917 270.602 180.476 270.602 178.699C270.602 176.922 269.161 175.481 267.384 175.481C265.607 175.481 264.166 176.922 264.166 178.699C264.166 180.476 265.607 181.917 267.384 181.917ZM267.384 183.526C270.05 183.526 272.211 181.365 272.211 178.699C272.211 176.033 270.05 173.872 267.384 173.872C264.718 173.872 262.557 176.033 262.557 178.699C262.557 181.365 264.718 183.526 267.384 183.526Z" fill="#EF0AA1" stroke="#EF0AA1"/>
<path d="M188.543 214.097C188.543 206.988 194.306 201.225 201.415 201.225H272.211C279.32 201.225 285.083 206.988 285.083 214.097V223.751C285.083 230.86 279.32 236.623 272.211 236.623H201.415C194.306 236.623 188.543 230.86 188.543 223.751V214.097Z" fill="white" stroke="#001D6D"/>
<path fill-rule="evenodd" clip-rule="evenodd" d="M272.211 202.834H201.415C195.194 202.834 190.152 207.877 190.152 214.097V223.751C190.152 229.971 195.194 235.014 201.415 235.014H272.211C278.431 235.014 283.474 229.971 283.474 223.751V214.097C283.474 207.877 278.431 202.834 272.211 202.834ZM201.415 201.225C194.306 201.225 188.543 206.988 188.543 214.097V223.751C188.543 230.86 194.306 236.623 201.415 236.623H272.211C279.32 236.623 285.083 230.86 285.083 223.751V214.097C285.083 206.988 279.32 201.225 272.211 201.225H201.415Z" fill="#001D6D" stroke="#001D6D" stroke-width="2"/>
<path d="M196.588 218.924C196.588 215.369 199.469 212.488 203.024 212.488H217.505C221.059 212.488 223.941 215.369 223.941 218.924C223.941 222.478 221.059 225.36 217.505 225.36H203.024C199.469 225.36 196.588 222.478 196.588 218.924Z" fill="white"/>
<path fill-rule="evenodd" clip-rule="evenodd" d="M217.505 214.097H203.024C200.358 214.097 198.197 216.258 198.197 218.924C198.197 221.59 200.358 223.751 203.024 223.751H217.505C220.171 223.751 222.332 221.59 222.332 218.924C222.332 216.258 220.171 214.097 217.505 214.097ZM203.024 212.488C199.469 212.488 196.588 215.369 196.588 218.924C196.588 222.478 199.469 225.36 203.024 225.36H217.505C221.059 225.36 223.941 222.478 223.941 218.924C223.941 215.369 221.059 212.488 217.505 212.488H203.024Z" fill="#001D6D" stroke="#001D6D"/>
<path d="M243.249 218.924C243.249 221.59 241.088 223.751 238.422 223.751C235.756 223.751 233.595 221.59 233.595 218.924C233.595 216.258 235.756 214.097 238.422 214.097C241.088 214.097 243.249 216.258 243.249 218.924Z" fill="white"/>
<path fill-rule="evenodd" clip-rule="evenodd" d="M238.422 222.142C240.199 222.142 241.64 220.701 241.64 218.924C241.64 217.147 240.199 215.706 238.422 215.706C236.645 215.706 235.204 217.147 235.204 218.924C235.204 220.701 236.645 222.142 238.422 222.142ZM238.422 223.751C241.088 223.751 243.249 221.59 243.249 218.924C243.249 216.258 241.088 214.097 238.422 214.097C235.756 214.097 233.595 216.258 233.595 218.924C233.595 221.59 235.756 223.751 238.422 223.751Z" fill="#EF0AA1" stroke="#EF0AA1"/>
<path d="M257.73 218.924C257.73 221.59 255.569 223.751 252.903 223.751C250.237 223.751 248.076 221.59 248.076 218.924C248.076 216.258 250.237 214.097 252.903 214.097C255.569 214.097 257.73 216.258 257.73 218.924Z" fill="white" stroke="#EF0AA1"/>
<path fill-rule="evenodd" clip-rule="evenodd" d="M252.903 222.142C254.68 222.142 256.121 220.701 256.121 218.924C256.121 217.147 254.68 215.706 252.903 215.706C251.126 215.706 249.685 217.147 249.685 218.924C249.685 220.701 251.126 222.142 252.903 222.142ZM252.903 223.751C255.569 223.751 257.73 221.59 257.73 218.924C257.73 216.258 255.569 214.097 252.903 214.097C250.237 214.097 248.076 216.258 248.076 218.924C248.076 221.59 250.237 223.751 252.903 223.751Z" fill="#EF0AA1"/>
<path d="M272.211 218.924C272.211 221.59 270.05 223.751 267.384 223.751C264.718 223.751 262.557 221.59 262.557 218.924C262.557 216.258 264.718 214.097 267.384 214.097C270.05 214.097 272.211 216.258 272.211 218.924Z" fill="white"/>
<path fill-rule="evenodd" clip-rule="evenodd" d="M267.384 222.142C269.161 222.142 270.602 220.701 270.602 218.924C270.602 217.147 269.161 215.706 267.384 215.706C265.607 215.706 264.166 217.147 264.166 218.924C264.166 220.701 265.607 222.142 267.384 222.142ZM267.384 223.751C270.05 223.751 272.211 221.59 272.211 218.924C272.211 216.258 270.05 214.097 267.384 214.097C264.718 214.097 262.557 216.258 262.557 218.924C262.557 221.59 264.718 223.751 267.384 223.751Z" fill="#EF0AA1" stroke="#EF0AA1"/>
<path d="M214.408 269.107H191.259C187.071 269.107 183.676 265.613 183.676 261.304C183.676 256.994 180.281 253.5 176.092 253.5H168.11C163.922 253.5 160.527 256.994 160.527 261.304C160.527 265.613 157.132 269.107 152.943 269.107H130.592C128.608 269.107 127 270.762 127 272.804C127 274.845 128.608 276.5 130.592 276.5H214.408C216.392 276.5 218 274.845 218 272.804C218 270.762 216.392 269.107 214.408 269.107Z" fill="white"/>
<path fill-rule="evenodd" clip-rule="evenodd" d="M168.091 254.1C164.327 254.1 161.276 257.144 161.276 260.9C161.276 265.539 157.507 269.3 152.858 269.3H130.409C128.86 269.3 127.603 270.554 127.603 272.1C127.603 273.646 128.86 274.9 130.409 274.9H214.59C216.14 274.9 217.396 273.646 217.396 272.1C217.396 270.554 216.14 269.3 214.59 269.3H191.341C186.692 269.3 182.923 265.539 182.923 260.9C182.923 257.144 179.872 254.1 176.108 254.1H168.091ZM159.673 260.9C159.673 256.261 163.442 252.5 168.091 252.5H176.108C180.757 252.5 184.526 256.261 184.526 260.9C184.526 264.656 187.577 267.7 191.341 267.7H214.59C217.026 267.7 219 269.67 219 272.1C219 274.53 217.026 276.5 214.59 276.5H130.409C127.974 276.5 126 274.53 126 272.1C126 269.67 127.974 267.7 130.409 267.7H152.858C156.622 267.7 159.673 264.656 159.673 260.9Z" fill="#001D6D" stroke="#001D6D" stroke-width="2"/>
<path d="M188.543 254.322C188.543 247.213 194.306 241.45 201.415 241.45H272.211C279.32 241.45 285.083 247.213 285.083 254.322V263.976C285.083 271.085 279.32 276.848 272.211 276.848H201.415C194.306 276.848 188.543 271.085 188.543 263.976V254.322Z" fill="white"/>
<path fill-rule="evenodd" clip-rule="evenodd" d="M272.211 243.109H201.415C195.194 243.109 190.152 248.152 190.152 254.372V264.026C190.152 270.246 195.194 275.289 201.415 275.289H272.211C278.431 275.289 283.474 270.246 283.474 264.026V254.372C283.474 248.152 278.431 243.109 272.211 243.109ZM201.415 241.5C194.306 241.5 188.543 247.263 188.543 254.372V264.026C188.543 271.135 194.306 276.898 201.415 276.898H272.211C279.32 276.898 285.083 271.135 285.083 264.026V254.372C285.083 247.263 279.32 241.5 272.211 241.5H201.415Z" fill="#001D6D" stroke="#001D6D" stroke-width="2"/>
<path d="M196.588 259.149C196.588 255.594 199.469 252.713 203.024 252.713H217.505C221.059 252.713 223.941 255.594 223.941 259.149C223.941 262.703 221.059 265.585 217.505 265.585H203.024C199.469 265.585 196.588 262.703 196.588 259.149Z" fill="white"/>
<path fill-rule="evenodd" clip-rule="evenodd" d="M217.505 254.322H203.024C200.358 254.322 198.197 256.483 198.197 259.149C198.197 261.815 200.358 263.976 203.024 263.976H217.505C220.171 263.976 222.332 261.815 222.332 259.149C222.332 256.483 220.171 254.322 217.505 254.322ZM203.024 252.713C199.469 252.713 196.588 255.594 196.588 259.149C196.588 262.703 199.469 265.585 203.024 265.585H217.505C221.059 265.585 223.941 262.703 223.941 259.149C223.941 255.594 221.059 252.713 217.505 252.713H203.024Z" fill="#001D6D" stroke="#001D6D"/>
<path d="M243.249 259.149C243.249 261.815 241.088 263.976 238.422 263.976C235.756 263.976 233.595 261.815 233.595 259.149C233.595 256.483 235.756 254.322 238.422 254.322C241.088 254.322 243.249 256.483 243.249 259.149Z" fill="white"/>
<path fill-rule="evenodd" clip-rule="evenodd" d="M238.422 262.367C240.199 262.367 241.64 260.926 241.64 259.149C241.64 257.372 240.199 255.931 238.422 255.931C236.645 255.931 235.204 257.372 235.204 259.149C235.204 260.926 236.645 262.367 238.422 262.367ZM238.422 263.976C241.088 263.976 243.249 261.815 243.249 259.149C243.249 256.483 241.088 254.322 238.422 254.322C235.756 254.322 233.595 256.483 233.595 259.149C233.595 261.815 235.756 263.976 238.422 263.976Z" fill="#EF0AA1" stroke="#EF0AA1"/>
<path d="M257.73 259.149C257.73 261.815 255.569 263.976 252.903 263.976C250.237 263.976 248.076 261.815 248.076 259.149C248.076 256.483 250.237 254.322 252.903 254.322C255.569 254.322 257.73 256.483 257.73 259.149Z" fill="white"/>
<path fill-rule="evenodd" clip-rule="evenodd" d="M252.903 262.367C254.68 262.367 256.121 260.926 256.121 259.149C256.121 257.372 254.68 255.931 252.903 255.931C251.126 255.931 249.685 257.372 249.685 259.149C249.685 260.926 251.126 262.367 252.903 262.367ZM252.903 263.976C255.569 263.976 257.73 261.815 257.73 259.149C257.73 256.483 255.569 254.322 252.903 254.322C250.237 254.322 248.076 256.483 248.076 259.149C248.076 261.815 250.237 263.976 252.903 263.976Z" fill="#EF0AA1" stroke="#EF0AA1"/>
<path d="M272.211 259.149C272.211 261.815 270.05 263.976 267.384 263.976C264.718 263.976 262.557 261.815 262.557 259.149C262.557 256.483 264.718 254.322 267.384 254.322C270.05 254.322 272.211 256.483 272.211 259.149Z" fill="white"/>
<path fill-rule="evenodd" clip-rule="evenodd" d="M267.384 262.367C269.161 262.367 270.602 260.926 270.602 259.149C270.602 257.372 269.161 255.931 267.384 255.931C265.607 255.931 264.166 257.372 264.166 259.149C264.166 260.926 265.607 262.367 267.384 262.367ZM267.384 263.976C270.05 263.976 272.211 261.815 272.211 259.149C272.211 256.483 270.05 254.322 267.384 254.322C264.718 254.322 262.557 256.483 262.557 259.149C262.557 261.815 264.718 263.976 267.384 263.976Z" fill="#EF0AA1" stroke="#EF0AA1"/>
<path d="M51.7783 77.3321C51.7783 70.2231 57.5413 64.4601 64.6503 64.4601H135.446C142.555 64.4601 148.318 70.2231 148.318 77.3321V86.9861C148.318 94.0951 142.555 99.858 135.446 99.858H64.6503C57.5413 99.858 51.7783 94.0951 51.7783 86.9861V77.3321Z" fill="white"/>
<path fill-rule="evenodd" clip-rule="evenodd" d="M135.446 66.0691H64.6503C58.4299 66.0691 53.3873 71.1117 53.3873 77.3321V86.9861C53.3873 93.2064 58.4299 98.249 64.6503 98.249H135.446C141.667 98.249 146.709 93.2064 146.709 86.9861V77.3321C146.709 71.1117 141.667 66.0691 135.446 66.0691ZM64.6503 64.4601C57.5413 64.4601 51.7783 70.2231 51.7783 77.3321V86.9861C51.7783 94.0951 57.5413 99.858 64.6503 99.858H135.446C142.555 99.858 148.318 94.0951 148.318 86.9861V77.3321C148.318 70.2231 142.555 64.4601 135.446 64.4601H64.6503Z" fill="#001D6D" stroke="#001D6D" stroke-width="2"/>
<path d="M59.8229 82.1591C59.8229 78.6046 62.7044 75.7231 66.2589 75.7231H80.7399C84.2944 75.7231 87.1759 78.6046 87.1759 82.1591C87.1759 85.7136 84.2944 88.5951 80.7399 88.5951H66.2589C62.7044 88.5951 59.8229 85.7136 59.8229 82.1591Z" fill="white"/>
<path fill-rule="evenodd" clip-rule="evenodd" d="M80.7399 77.3321H66.2589C63.593 77.3321 61.4319 79.4933 61.4319 82.1591C61.4319 84.825 63.593 86.9861 66.2589 86.9861H80.7399C83.4058 86.9861 85.5669 84.825 85.5669 82.1591C85.5669 79.4933 83.4058 77.3321 80.7399 77.3321ZM66.2589 75.7231C62.7044 75.7231 59.8229 78.6046 59.8229 82.1591C59.8229 85.7136 62.7044 88.5951 66.2589 88.5951H80.7399C84.2944 88.5951 87.1759 85.7136 87.1759 82.1591C87.1759 78.6046 84.2944 75.7231 80.7399 75.7231H66.2589Z" fill="#001D6D" stroke="#001D6D"/>
<path d="M106.484 82.159C106.484 84.8249 104.323 86.986 101.657 86.986C98.9911 86.986 96.83 84.8249 96.83 82.159C96.83 79.4932 98.9911 77.332 101.657 77.332C104.323 77.332 106.484 79.4932 106.484 82.159Z" fill="white"/>
<path fill-rule="evenodd" clip-rule="evenodd" d="M101.657 85.377C103.434 85.377 104.875 83.9363 104.875 82.159C104.875 80.3818 103.434 78.941 101.657 78.941C99.8797 78.941 98.439 80.3818 98.439 82.159C98.439 83.9363 99.8797 85.377 101.657 85.377ZM101.657 86.986C104.323 86.986 106.484 84.8249 106.484 82.159C106.484 79.4932 104.323 77.332 101.657 77.332C98.9911 77.332 96.83 79.4932 96.83 82.159C96.83 84.8249 98.9911 86.986 101.657 86.986Z" fill="#EF0AA1" stroke="#EF0AA1"/>
<path d="M120.965 82.159C120.965 84.8249 118.804 86.986 116.138 86.986C113.472 86.986 111.311 84.8249 111.311 82.159C111.311 79.4932 113.472 77.332 116.138 77.332C118.804 77.332 120.965 79.4932 120.965 82.159Z" fill="white"/>
<path fill-rule="evenodd" clip-rule="evenodd" d="M116.138 85.377C117.915 85.377 119.356 83.9363 119.356 82.159C119.356 80.3818 117.915 78.941 116.138 78.941C114.361 78.941 112.92 80.3818 112.92 82.159C112.92 83.9363 114.361 85.377 116.138 85.377ZM116.138 86.986C118.804 86.986 120.965 84.8249 120.965 82.159C120.965 79.4932 118.804 77.332 116.138 77.332C113.472 77.332 111.311 79.4932 111.311 82.159C111.311 84.8249 113.472 86.986 116.138 86.986Z" fill="#EF0AA1" stroke="#EF0AA1"/>
<path d="M135.446 82.159C135.446 84.8249 133.285 86.986 130.619 86.986C127.953 86.986 125.792 84.8249 125.792 82.159C125.792 79.4932 127.953 77.332 130.619 77.332C133.285 77.332 135.446 79.4932 135.446 82.159Z" fill="white"/>
<path fill-rule="evenodd" clip-rule="evenodd" d="M130.619 85.377C132.396 85.377 133.837 83.9363 133.837 82.159C133.837 80.3818 132.396 78.941 130.619 78.941C128.842 78.941 127.401 80.3818 127.401 82.159C127.401 83.9363 128.842 85.377 130.619 85.377ZM130.619 86.986C133.285 86.986 135.446 84.8249 135.446 82.159C135.446 79.4932 133.285 77.332 130.619 77.332C127.953 77.332 125.792 79.4932 125.792 82.159C125.792 84.8249 127.953 86.986 130.619 86.986Z" fill="#EF0AA1" stroke="#EF0AA1"/>
<path fill-rule="evenodd" clip-rule="evenodd" d="M135.446 109.512H64.6503C58.4299 109.512 53.3873 114.555 53.3873 120.775V130.429C53.3873 136.649 58.4299 141.692 64.6503 141.692H135.446C141.667 141.692 146.709 136.649 146.709 130.429V120.775C146.709 114.555 141.667 109.512 135.446 109.512ZM64.6503 107.903C57.5413 107.903 51.7783 113.666 51.7783 120.775V130.429C51.7783 137.538 57.5413 143.301 64.6503 143.301H135.446C142.555 143.301 148.318 137.538 148.318 130.429V120.775C148.318 113.666 142.555 107.903 135.446 107.903H64.6503Z" fill="#001D6D" stroke="#001D6D" stroke-width="2"/>
<path d="M59.8229 125.602C59.8229 122.048 62.7044 119.166 66.2589 119.166H80.7399C84.2944 119.166 87.1759 122.048 87.1759 125.602C87.1759 129.157 84.2944 132.038 80.7399 132.038H66.2589C62.7044 132.038 59.8229 129.157 59.8229 125.602Z" fill="white"/>
<path fill-rule="evenodd" clip-rule="evenodd" d="M80.7399 120.775H66.2589C63.593 120.775 61.4319 122.936 61.4319 125.602C61.4319 128.268 63.593 130.429 66.2589 130.429H80.7399C83.4058 130.429 85.5669 128.268 85.5669 125.602C85.5669 122.936 83.4058 120.775 80.7399 120.775ZM66.2589 119.166C62.7044 119.166 59.8229 122.048 59.8229 125.602C59.8229 129.157 62.7044 132.038 66.2589 132.038H80.7399C84.2944 132.038 87.1759 129.157 87.1759 125.602C87.1759 122.048 84.2944 119.166 80.7399 119.166H66.2589Z" fill="#001D6D" stroke="#001D6D"/>
<path d="M106.484 125.602C106.484 128.268 104.323 130.429 101.657 130.429C98.9911 130.429 96.83 128.268 96.83 125.602C96.83 122.936 98.9911 120.775 101.657 120.775C104.323 120.775 106.484 122.936 106.484 125.602Z" fill="white"/>
<path fill-rule="evenodd" clip-rule="evenodd" d="M101.657 128.82C103.434 128.82 104.875 127.379 104.875 125.602C104.875 123.825 103.434 122.384 101.657 122.384C99.8797 122.384 98.439 123.825 98.439 125.602C98.439 127.379 99.8797 128.82 101.657 128.82ZM101.657 130.429C104.323 130.429 106.484 128.268 106.484 125.602C106.484 122.936 104.323 120.775 101.657 120.775C98.9911 120.775 96.83 122.936 96.83 125.602C96.83 128.268 98.9911 130.429 101.657 130.429Z" fill="#EF0AA1" stroke="#EF0AA1"/>
<path d="M120.965 125.602C120.965 128.268 118.804 130.429 116.138 130.429C113.472 130.429 111.311 128.268 111.311 125.602C111.311 122.936 113.472 120.775 116.138 120.775C118.804 120.775 120.965 122.936 120.965 125.602Z" fill="white"/>
<path fill-rule="evenodd" clip-rule="evenodd" d="M116.138 128.82C117.915 128.82 119.356 127.379 119.356 125.602C119.356 123.825 117.915 122.384 116.138 122.384C114.361 122.384 112.92 123.825 112.92 125.602C112.92 127.379 114.361 128.82 116.138 128.82ZM116.138 130.429C118.804 130.429 120.965 128.268 120.965 125.602C120.965 122.936 118.804 120.775 116.138 120.775C113.472 120.775 111.311 122.936 111.311 125.602C111.311 128.268 113.472 130.429 116.138 130.429Z" fill="#EF0AA1" stroke="#EF0AA1"/>
<path d="M135.446 125.602C135.446 128.268 133.285 130.429 130.619 130.429C127.953 130.429 125.792 128.268 125.792 125.602C125.792 122.936 127.953 120.775 130.619 120.775C133.285 120.775 135.446 122.936 135.446 125.602Z" fill="white"/>
<path fill-rule="evenodd" clip-rule="evenodd" d="M130.619 128.82C132.396 128.82 133.837 127.379 133.837 125.602C133.837 123.825 132.396 122.384 130.619 122.384C128.842 122.384 127.401 123.825 127.401 125.602C127.401 127.379 128.842 128.82 130.619 128.82ZM130.619 130.429C133.285 130.429 135.446 128.268 135.446 125.602C135.446 122.936 133.285 120.775 130.619 120.775C127.953 120.775 125.792 122.936 125.792 125.602C125.792 128.268 127.953 130.429 130.619 130.429Z" fill="#EF0AA1" stroke="#EF0AA1"/>
<path fill-rule="evenodd" clip-rule="evenodd" d="M272.211 162.609H201.415C195.194 162.609 190.152 167.652 190.152 173.872V183.526C190.152 189.746 195.194 194.789 201.415 194.789H272.211C278.431 194.789 283.474 189.746 283.474 183.526V173.872C283.474 167.652 278.431 162.609 272.211 162.609ZM201.415 161C194.306 161 188.543 166.763 188.543 173.872V183.526C188.543 190.635 194.306 196.398 201.415 196.398H272.211C279.32 196.398 285.083 190.635 285.083 183.526V173.872C285.083 166.763 279.32 161 272.211 161H201.415Z" fill="#001D6D" stroke="#001D6D" stroke-width="2"/>
</svg>
