<svg width="490" height="277" viewBox="0 0 490 277" fill="none" xmlns="http://www.w3.org/2000/svg">
<path d="M141.507 139.765H90.4682V88.7255C90.4682 88.0982 89.955 87.5849 89.3277 87.5849H85.6209C78.1318 87.5727 70.7142 89.0413 63.7949 91.9065C56.8755 94.7716 50.5909 98.9766 45.3028 104.28C40.0949 109.471 35.9453 115.625 33.0847 122.4C30.108 129.426 28.5805 136.981 28.5938 144.612C28.5816 152.101 30.0503 159.519 32.9154 166.438C35.7805 173.357 39.9855 179.642 45.2885 184.93C50.5207 190.162 56.6226 194.283 63.4089 197.148C70.4351 200.125 77.9901 201.652 85.6209 201.639C93.11 201.651 100.528 200.183 107.447 197.317C114.366 194.452 120.651 190.247 125.939 184.944C131.171 179.712 135.291 173.61 138.157 166.824C141.134 159.798 142.661 152.243 142.648 144.612V140.905C142.648 140.278 142.135 139.765 141.507 139.765ZM118.939 178.229C114.524 182.61 109.289 186.076 103.532 188.429C97.7759 190.783 91.6117 191.977 85.3928 191.944C72.8326 191.887 61.028 186.969 52.146 178.087C43.207 169.148 38.2884 157.258 38.2884 144.612C38.2884 131.966 43.207 120.076 52.146 111.137C59.9302 103.353 69.9527 98.6054 80.7736 97.5219V149.459H132.711C131.613 160.337 126.823 170.417 118.939 178.229Z" fill="#002487"/>
<path fill-rule="evenodd" clip-rule="evenodd" d="M154.053 131.838L153.683 127.817C152.471 114.687 146.64 102.298 137.259 92.9453C127.871 83.5757 115.508 77.7771 102.301 76.5501L98.2666 76.1794C97.5966 76.1224 97.0263 76.6356 97.0263 77.3057V132.066C97.0263 132.693 97.5395 133.206 98.1668 133.206L152.913 133.064C153.583 133.064 154.11 132.494 154.053 131.838ZM106.692 86.9575V123.54L143.247 123.441C141.393 114.53 136.931 106.261 130.416 99.7601C123.915 93.2849 115.673 88.8372 106.692 86.9575Z" fill="#F61DAD"/>
<path d="M460.689 180.128H362.603V91.1656C362.603 90.5383 362.09 90.025 361.462 90.025H353.478C352.851 90.025 352.338 90.5383 352.338 91.1656V189.252C352.338 189.879 352.851 190.393 353.478 190.393H460.689C461.317 190.393 461.83 189.879 461.83 189.252V181.268C461.83 180.641 461.317 180.128 460.689 180.128Z" fill="#002487"/>
<path d="M383.132 168.722H375.149C374.521 168.722 374.008 168.209 374.008 167.582V147.052C374.008 146.425 374.521 145.911 375.149 145.911H383.132C383.76 145.911 384.273 146.425 384.273 147.052V167.582C384.273 168.209 383.76 168.722 383.132 168.722Z" fill="#F61DAD"/>
<path d="M404.803 168.722H396.819C396.192 168.722 395.678 168.209 395.678 167.582V121.96C395.678 121.333 396.192 120.819 396.819 120.819H404.803C405.43 120.819 405.943 121.333 405.943 121.96V167.582C405.943 168.209 405.43 168.722 404.803 168.722Z" fill="#F61DAD"/>
<path d="M426.473 168.722H418.489C417.862 168.722 417.349 168.209 417.349 167.582V133.08C417.349 132.453 417.862 131.94 418.489 131.94H426.473C427.1 131.94 427.614 132.453 427.614 133.08V167.582C427.614 168.209 427.1 168.722 426.473 168.722Z" fill="#F61DAD"/>
<path d="M448.143 168.722H440.16C439.532 168.722 439.019 168.209 439.019 167.582V110.555C439.019 109.927 439.532 109.414 440.16 109.414H448.143C448.771 109.414 449.284 109.927 449.284 110.555V167.582C449.284 168.209 448.771 168.722 448.143 168.722Z" fill="#F61DAD"/>
<path d="M222.494 148.022H238.075V155.812H222.494V148.022Z" fill="#F61DAD"/>
<path d="M245.866 148.022H261.447V155.812H245.866V148.022Z" fill="#F61DAD"/>
<path d="M222.494 132.441H238.075V140.231H222.494V132.441Z" fill="#F61DAD"/>
<path d="M245.866 163.603H261.447V171.394H245.866V163.603Z" fill="#F61DAD"/>
<path d="M269.237 132.441H284.819V140.231H269.237V132.441Z" fill="#F61DAD"/>
<path d="M269.237 163.603H284.819V171.394H269.237V163.603Z" fill="#F61DAD"/>
<path d="M296.505 89.5922H210.808C208.742 89.5942 206.762 90.4157 205.301 91.8763C203.841 93.3368 203.019 95.3172 203.017 97.3828V183.08C203.019 185.145 203.841 187.126 205.301 188.586C206.762 190.047 208.742 190.868 210.808 190.87H296.505C298.57 190.868 300.551 190.047 302.011 188.586C303.472 187.126 304.293 185.145 304.295 183.08V97.3828C304.293 95.3172 303.472 93.3368 302.011 91.8763C300.551 90.4157 298.57 89.5942 296.505 89.5922ZM296.505 97.3828V112.964H210.808V97.3828H296.505ZM210.808 183.08V120.755H296.505V183.08H210.808Z" fill="#002487"/>
</svg>
