<svg width="280" height="281" viewBox="0 0 280 281" fill="none" xmlns="http://www.w3.org/2000/svg">
<path d="M187.839 211.45C187.762 211.45 187.676 211.45 187.608 211.442C186.386 211.372 185.266 210.793 184.505 209.825L167.41 188.214C165.94 186.347 166.23 183.632 168.077 182.137C169.931 180.667 172.607 180.961 174.086 182.811L188.189 200.645L214.729 173.812C216.396 172.126 219.106 172.126 220.773 173.812C222.439 175.498 222.439 178.238 220.773 179.924L190.856 210.179C190.061 210.992 188.967 211.45 187.839 211.45Z" fill="#EF0AA1"/>
<path d="M76.7207 99.0725C69.6519 99.0725 63.8993 93.2547 63.8993 86.1057C63.8993 78.9567 69.6519 73.139 76.7207 73.139C83.7896 73.139 89.5422 78.9567 89.5422 86.1057C89.5422 93.2547 83.7896 99.0725 76.7207 99.0725ZM76.7207 81.7835C74.3701 81.7835 72.4469 83.7285 72.4469 86.1057C72.4469 88.483 74.3701 90.428 76.7207 90.428C79.0713 90.428 80.9945 88.483 80.9945 86.1057C80.9945 83.7285 79.0713 81.7835 76.7207 81.7835Z" fill="#001D6D"/>
<path d="M76.7207 150.94C69.6519 150.94 63.8993 145.122 63.8993 137.973C63.8993 130.824 69.6519 125.006 76.7207 125.006C83.7896 125.006 89.5422 130.824 89.5422 137.973C89.5422 145.122 83.7896 150.94 76.7207 150.94ZM76.7207 133.651C74.3701 133.651 72.4469 135.596 72.4469 137.973C72.4469 140.35 74.3701 142.295 76.7207 142.295C79.0713 142.295 80.9945 140.35 80.9945 137.973C80.9945 135.596 79.0713 133.651 76.7207 133.651Z" fill="#001D6D"/>
<path d="M76.7207 202.805C69.6519 202.805 63.8993 196.988 63.8993 189.839C63.8993 182.69 69.6519 176.872 76.7207 176.872C83.7896 176.872 89.5422 182.69 89.5422 189.839C89.5422 196.988 83.7896 202.805 76.7207 202.805ZM76.7207 185.516C74.3701 185.516 72.4469 187.461 72.4469 189.839C72.4469 192.216 74.3701 194.161 76.7207 194.161C79.0713 194.161 80.9945 192.216 80.9945 189.839C80.9945 187.461 79.0713 185.516 76.7207 185.516Z" fill="#001D6D"/>
<path d="M192.113 254.672C191.549 254.672 190.985 254.559 190.455 254.335C188.42 253.462 140.827 232.663 140.827 190.149V154.024C140.827 152.165 141.998 150.523 143.734 149.926L190.745 133.873C191.634 133.571 192.6 133.571 193.481 133.873L240.493 149.926C242.228 150.514 243.399 152.165 243.399 154.024V190.149C243.399 232.663 195.806 253.462 193.771 254.335C193.241 254.559 192.677 254.672 192.113 254.672ZM149.375 157.136V190.149C149.375 222.86 184.036 241.653 192.113 245.586C200.182 241.645 234.851 222.774 234.851 190.149V157.136L192.113 142.535L149.375 157.136Z" fill="#EF0AA1"/>
<path d="M196.387 116.36H68.1732C51.6763 116.36 38.2565 102.788 38.2565 86.1046C38.2565 69.4207 51.6763 55.8488 68.1732 55.8488H196.387C212.884 55.8488 226.304 69.4207 226.304 86.1046C226.304 102.788 212.884 116.36 196.387 116.36ZM68.1732 64.4933C56.386 64.4933 46.8041 74.1838 46.8041 86.1046C46.8041 98.0254 56.386 107.716 68.1732 107.716H196.387C208.175 107.716 217.756 98.0254 217.756 86.1046C217.756 74.1838 208.175 64.4933 196.387 64.4933H68.1732Z" fill="#001D6D"/>
<path d="M119.458 99.0725C112.389 99.0725 106.637 93.2547 106.637 86.1057C106.637 78.9567 112.389 73.139 119.458 73.139C126.527 73.139 132.28 78.9567 132.28 86.1057C132.28 93.2547 126.527 99.0725 119.458 99.0725ZM119.458 81.7835C117.108 81.7835 115.184 83.7285 115.184 86.1057C115.184 88.483 117.108 90.428 119.458 90.428C121.809 90.428 123.732 88.483 123.732 86.1057C123.732 83.7285 121.809 81.7835 119.458 81.7835Z" fill="#001D6D"/>
<path d="M119.458 168.228H68.1724C51.6756 168.228 38.2558 154.656 38.2558 137.972C38.2558 129.898 41.3671 122.308 47.0257 116.586C52.6842 110.863 60.189 107.717 68.1724 107.717H196.387C203.071 107.717 209.37 109.886 214.576 113.992C216.439 115.462 216.773 118.176 215.32 120.061C213.867 121.937 211.183 122.274 209.319 120.813C205.627 117.9 201.156 116.361 196.387 116.361H68.1724C62.4797 116.361 57.1118 118.617 53.0688 122.697C49.0258 126.778 46.8034 132.215 46.8034 137.972C46.8034 149.893 56.3853 159.584 68.1724 159.584H119.458C121.817 159.584 123.732 161.52 123.732 163.906C123.732 166.292 121.817 168.228 119.458 168.228Z" fill="#001D6D"/>
<path d="M119.458 150.94C112.389 150.94 106.637 145.122 106.637 137.973C106.637 130.824 112.389 125.006 119.458 125.006C126.527 125.006 132.28 130.824 132.28 137.973C132.28 145.122 126.527 150.94 119.458 150.94ZM119.458 133.651C117.108 133.651 115.184 135.596 115.184 137.973C115.184 140.35 117.108 142.295 119.458 142.295C121.809 142.295 123.732 140.35 123.732 137.973C123.732 135.596 121.809 133.651 119.458 133.651Z" fill="#001D6D"/>
<path d="M119.458 220.096H68.1725C51.6756 220.096 38.2558 206.524 38.2558 189.84C38.2558 181.766 41.3671 174.176 47.0257 168.453C52.6842 162.731 60.189 159.584 68.1725 159.584H119.458C121.817 159.584 123.732 161.521 123.732 163.906C123.732 166.292 121.817 168.229 119.458 168.229H68.1725C62.4797 168.229 57.1118 170.485 53.0688 174.565C49.0258 178.645 46.8034 184.083 46.8034 189.84C46.8034 201.761 56.3853 211.451 68.1725 211.451H119.458C121.817 211.451 123.732 213.388 123.732 215.773C123.732 218.159 121.817 220.096 119.458 220.096Z" fill="#001D6D"/>
<path d="M119.458 202.805C112.389 202.805 106.637 196.988 106.637 189.839C106.637 182.69 112.389 176.872 119.458 176.872C126.527 176.872 132.28 182.69 132.28 189.839C132.28 196.988 126.527 202.805 119.458 202.805ZM119.458 185.516C117.108 185.516 115.184 187.461 115.184 189.839C115.184 192.216 117.108 194.161 119.458 194.161C121.809 194.161 123.732 192.216 123.732 189.839C123.732 187.461 121.809 185.516 119.458 185.516Z" fill="#001D6D"/>
</svg>
